<svg xmlns="http://www.w3.org/2000/svg" xmlns:xlink="http://www.w3.org/1999/xlink" viewBox="0 0 400 300" width="406" height="306" class="illustration styles_illustrationTablet__1DWOa"><defs><linearGradient id="linear-gradient" x1="245.51" y1="252.67" x2="228.95" y2="224.28" gradientUnits="userSpaceOnUse"><stop offset="0" stop-color="#fff" stop-opacity="0"></stop><stop offset="0.99" stop-color="#ffa86a"></stop></linearGradient><linearGradient id="linear-gradient-2" x1="331.72" y1="206.21" x2="324.89" y2="194.49" xlink:href="#linear-gradient"></linearGradient></defs><title>151-160</title><g style="isolation: isolate;"><g id="Layer_2" data-name="Layer 2"><path d="M26.11,151.51,161.71,72.65a6.41,6.41,0,0,1,6.41,0L370.91,188.7a6.41,6.41,0,0,1,0,11.12L241.25,274.69a20.93,20.93,0,0,1-20.93,0L26.12,162.61A6.41,6.41,0,0,1,26.11,151.51Z" fill="#ffb3a6"></path><path d="M221,273.42c35.88-23.7,56.62-26,90-50.55-21.15-11-57.08-32.47-70.13-40.63l-88.95,51.95,67.39,39.25Z" opacity="0.63" fill="url(#linear-gradient)" style="mix-blend-mode: multiply;"></path><polygon points="90.43 200.34 168.4 244.45 259.45 191.43 259.45 155.78 168.4 208.8 90.43 164.23 90.43 200.34" fill="#c55765"></polygon><polygon points="90.43 200.34 168.4 244.45 259.45 191.43 259.45 155.78 168.4 208.8 90.43 164.23 90.43 200.34" opacity="0.15"></polygon><polygon points="90.43 164.23 183.22 110.99 259.45 155.78 168.4 208.8 90.43 164.23" fill="#c55765"></polygon><polygon points="168.4 208.8 168.4 244.45 259.45 191.43 259.45 155.78 168.4 208.8" opacity="0.15"></polygon><g style="isolation: isolate;"><path d="M168.51,130.56a8.48,8.48,0,0,1,1.68,1.16,5.13,5.13,0,0,1,1,1.14,4.91,4.91,0,0,1,.45.94,2,2,0,0,1,.11.68v.25l-4.1.27a1.94,1.94,0,0,0,0-.44,2.35,2.35,0,0,0-.44-.92,3.16,3.16,0,0,0-1.23-1.08,4.28,4.28,0,0,0-2.06-.53,3,3,0,0,0-1.73.45.9.9,0,0,0-.4,1.25,5.86,5.86,0,0,0,1.2,1.57,22.28,22.28,0,0,1,1.59,1.73,2.5,2.5,0,0,1,.61,2,3.27,3.27,0,0,1-1.63,2.07,8.91,8.91,0,0,1-5,1.42,11.9,11.9,0,0,1-5.77-1.49,9.32,9.32,0,0,1-1.91-1.32,5.28,5.28,0,0,1-1.11-1.33,6.6,6.6,0,0,1-.48-1.12,2.5,2.5,0,0,1-.11-.81v-.31l4-.19c0,.13,0,.3,0,.52a3.07,3.07,0,0,0,.55,1.16,4.19,4.19,0,0,0,1.61,1.4,5.28,5.28,0,0,0,2.48.67,3.6,3.6,0,0,0,2.08-.55.91.91,0,0,0,.4-1.25,5.64,5.64,0,0,0-1.21-1.57,21.07,21.07,0,0,1-1.6-1.73,2.47,2.47,0,0,1-.59-2,3.21,3.21,0,0,1,1.62-2.07,8.37,8.37,0,0,1,4.66-1.25A10.87,10.87,0,0,1,168.51,130.56Z" fill="#fff"></path><path d="M186.09,151.84l-1.29.73-8.12-4.34a1.48,1.48,0,0,0-.47,1.49,2.48,2.48,0,0,0,1.41,1.47,6.51,6.51,0,0,0,1.93.65,7.1,7.1,0,0,0,1.69.12l.65,0-.33,2.14-.4,0c-.18,0-.53,0-1,0a15.21,15.21,0,0,1-1.53-.14,11.85,11.85,0,0,1-1.78-.42,10.85,10.85,0,0,1-1.88-.77c-1.65-.88-2.51-2-2.6-3.33s.61-2.51,2.11-3.52A10.71,10.71,0,0,1,180,144.2a10.85,10.85,0,0,1,5.73,1.12c1.6.85,2.44,1.9,2.5,3.14S187.59,150.83,186.09,151.84Zm-7.38-5,5.15,2.75a1.52,1.52,0,0,0,.53-1.39,1.89,1.89,0,0,0-1.11-1.25,4.73,4.73,0,0,0-2.2-.54,6.49,6.49,0,0,0-2.36.42" fill="#fff"></path></g><path d="M179.26,138.37l-3.32,2.23,2.28,1.22-2.57,1.73-2.28-1.22-4.17,2.8a.81.81,0,0,0-.45.77c0,.29.23.54.63.76a4.33,4.33,0,0,0,.65.27,4.22,4.22,0,0,0,.54.15l.18,0-2.47,1.66a8.81,8.81,0,0,1-2.32-.86l-.06,0c-2.36-1.26-2.32-2.71.11-4.34l4.28-2.87-1.95-1,2.57-1.73,1,.55a2.27,2.27,0,0,0,1.28.22,2.83,2.83,0,0,0,1.38-.48l1.92-1.29Z" fill="#fff"></path><path d="M202.23,156q0,1.92-2.27,3.46a10.9,10.9,0,0,1-5.48,1.75,9.88,9.88,0,0,1-5.37-1,3.8,3.8,0,0,1-1.42-1.21,2,2,0,0,1-.44-1.13l0-.44-5.78,3.89-3.09-1.65,15-10.08,3.09,1.65-1.28.86.29,0,.75,0a10,10,0,0,1,1.12,0,8.68,8.68,0,0,1,1.3.25A6.43,6.43,0,0,1,200,153,3.52,3.52,0,0,1,202.23,156Zm-8.36,2.72a5.88,5.88,0,0,0,2.88-1A2.36,2.36,0,0,0,198,156a1.79,1.79,0,0,0-1.14-1.58,5,5,0,0,0-2.76-.5,5.79,5.79,0,0,0-2.88,1,2.36,2.36,0,0,0-1.28,1.83,1.79,1.79,0,0,0,1.13,1.59,5,5,0,0,0,2.76.49" fill="#fff"></path><path d="M222.38,159.71l-15,10.08L204,168l10.92-7.34-2.75-1.47,2-1.37a8.81,8.81,0,0,0,1.68.5,8,8,0,0,0,1.49.16c.41,0,.8,0,1.13-.06a5.08,5.08,0,0,0,.8-.12l.27-.07Z" fill="#fff"></path><polyline points="103.78 117.74 98.95 143.53 113.12 127.31" fill="#ffede1"></polyline><path d="M139,183.34c-1.17-.36-6.2-.08-6.2-.08s-.28-4.11-.16-4.3l-5.19-.18s-1.43,7.43-1.54,8.42c-.19,1.82,2,2.62,2.5,2.6a8.9,8.9,0,0,0,1.08-.32,15,15,0,0,1,0-2.87c.07-.43.19-.73.63-.85.79-.21,2.16.35,2.92.58s1.79.58,2.69.84c2.14-.86,4-1.71,4.15-2.11C140.39,184.09,140.84,183.89,139,183.34Z" fill="#ffede1"></path><path d="M140.73,183.84l-.11-.15c-.35-.42-1.39-.5-1.88-.56a24.45,24.45,0,0,0-5.91.14s4.74-.15,4.83.71a2.23,2.23,0,0,1-.68,1.88c-2.14,1.53-5-.7-6.79-1.72l-3.37-1.89-.53,2.85a21.42,21.42,0,0,0-.41,3.95c.2.43,2.18,1.75,2.64,1.57s1.93-.86,1.93-.86l.09-3.5s2.79,1.57,4.2,1.35C135.81,187.45,141.77,185.59,140.73,183.84Z" fill="#56403d"></path><path d="M98.91,207.93c-.77-.36-1.92-.7-2.41-1.47a4.71,4.71,0,0,1-.24-2.79q.1-1.33.27-2.65a.44.44,0,0,1-.13-.34,16,16,0,0,1,.24-2.15l-3.59-.73s-2.26,6-2.23,6.74,3,5.78,4.7,6.28,6.75-.52,7.22-1.14l0-.06C101.48,209.09,100.19,208.53,98.91,207.93Z" fill="#ffede1"></path><path d="M94.18,205s1.27,6.12,1.92,6.58,8.17-1.1,7.23-2.6c-.6-1-5-1.41-5.37-1.56,0,0,2.23,1,2.19,1.37s-3.09,1.41-3.21,1.12-2.75-5.81-2.75-5.81l-2.87-1.36-3,5.19,2,1.11s.46,1.72.68,1.74a24.2,24.2,0,0,0,2.23-2.86,8.09,8.09,0,0,0,.49,2.24c.27.24,2.48,2.49,3.75,1.08l-1.8-2.5" fill="#56403d"></path><path d="M114.94,147.89c2.32-7.59,2.38-6.24,3.9-12.5l-15.18-4C95.92,143,88.72,199,88.72,199s7.49,6,14,4.18c0,0,8.77-46.21,8.79-46.26C112.76,153.79,112.81,153.2,114.94,147.89Z" fill="#999a1c"></path><path d="M137.26,150.79c-2.2-7.18-20.62-16-20.62-16l-6.42,19.44c.32-1,11.83,2,12.92,3.16,2.63,2.79,1.4,8.46,1,11.9,0,0-1.1,5.55-1.8,9.48,4.46,3.44,12.94,0,12.94,0S139.46,158,137.26,150.79Z" fill="#999a1c"></path><path d="M112.53,154.22s-4.09-.65-6.36-2.51l-.83,34.72Z" fill="#7a770e"></path><path d="M130.94,127.32l2.42,16.8s4.64,4,5.26,6.15a4.47,4.47,0,0,1-.81,3.84l-8.94-8.43-6-19.06" fill="#ffede1"></path><path d="M123.84,109.36c.35.78,4,3.9,5,8.39s2.07,9.57,2.07,9.57l-11.22,4.08" fill="#b05800"></path><path d="M111.43,107.2c-2.62-.33-10.14,9.59-10,11.06s5,5.59,5,5.59" fill="#b05800"></path><path d="M125.3,111.55l-.58-.09c-3-.41-5.79-5-5.79-5s.23-9.56-6.19-2.74c-4.8,5.1-8.09,21-9.46,28.7,1.92,1.89,4.65,2.81,7.23,3.47a32.44,32.44,0,0,0,5.2,1,7.85,7.85,0,0,0,3.21-.36l4-12.21A128.21,128.21,0,0,1,125.3,111.55Z" fill="#b05800"></path><path d="M127.85,100s.62,8.93-4,9.33-6.1-4.26-6-5.27S120.88,96.36,127.85,100Z" fill="#ffede1"></path><path d="M128.61,99.07a8.58,8.58,0,0,0-6.12-3.76,10.41,10.41,0,0,0-6.2.45,3.52,3.52,0,0,0-1.39-1.27,3.66,3.66,0,0,0-4.26.62,3.17,3.17,0,0,0-.35,3.91,4,4,0,0,0,2.67,1.46l-.06.18c-.47,1.43-2.07,1.56-3.08,2.5a3,3,0,0,0-.94,1.62c-.12.63.21,1.51-.06,2.08s-.76.7-1.14,1a6.62,6.62,0,0,0-1.21,1c2.09,2.65,5.5,4.13,8.73,4.81a16.69,16.69,0,0,0,10.5-.88,2.47,2.47,0,0,0-.23-1,9.23,9.23,0,0,0-1.25-1.56c-.61-.82.85-1.86,1.15-2.64.52-1.33-.2-2.29-1.08-3.21-.64-.66-.47-1.16-.13-2a3.28,3.28,0,0,1,1.17-1.65,1.11,1.11,0,0,0,.74.15,6.09,6.09,0,0,1,1.54,0,1,1,0,0,0,1.06-.91A.83.83,0,0,0,128.61,99.07Z" fill="#56403d"></path><path d="M124.46,100.72a16,16,0,0,0,4.1.29c0-.13,2.39-4.49-6.34-6.42s-9.1,9.35-9.1,9.35" fill="#56403d"></path><path d="M331.4,209.55c9.33-6.16,8.3-3,17-9.37-5.5-2.86-22-13.16-25.37-15.28l-19.48,7.57L321,202.67C321.19,202.67,331.26,209.55,331.4,209.55Z" opacity="0.63" fill="url(#linear-gradient-2)" style="mix-blend-mode: multiply;"></path><polyline points="304.06 175.36 304.06 190.24 328.13 190.24 328.13 175.36" fill="#c55765"></polyline><ellipse cx="316.09" cy="175.36" rx="12.04" ry="5.92" fill="#c55765"></ellipse><ellipse cx="316.09" cy="175.36" rx="12.04" ry="5.92" opacity="0.73"></ellipse><ellipse cx="316.09" cy="190.82" rx="12.04" ry="5.92" fill="#c55765"></ellipse><path d="M329.57,140.76c-2.54-1-6.06-4.5-9.13-4.39a36,36,0,0,0-1.86,9.13,82.89,82.89,0,0,0-.35,15.25q.11,1.7.28,3.39a2.7,2.7,0,0,0,.27,1q0,5.89,0,11.78a.37.37,0,0,0,.75,0q0-5.67,0-11.33a16.7,16.7,0,0,0,3.45-1.59,11.73,11.73,0,0,0,4.85-6.09c1.94-5.41.72-11.45,2.56-16.8C330.11,141,329.84,140.87,329.57,140.76Z" fill="#297600"></path><path d="M324.37,131.9a9.43,9.43,0,0,0-3.44,3.52,5.9,5.9,0,0,0-.54,1l-.1.23h0a15.74,15.74,0,0,0-.58,1.87,2.33,2.33,0,0,1,1.28-1,3.18,3.18,0,0,1,2-.18,8.42,8.42,0,0,1,1.84,1c.86.52,1.69,1.1,2.53,1.64,4,2.53,9.3,2.79,12.38-.9,0-.15.08-.29.1-.44C340.31,136.11,333.19,126.77,324.37,131.9Z" fill="#5fad00"></path><path d="M338,140.65l.5-.33a.34.34,0,0,0-.1-.29c-2.41-2.48-5-4.9-8.3-6.12a14.21,14.21,0,0,0-7.41-.73c-.27.31-.51.64-.75,1a12.87,12.87,0,0,1,8.52.71c2.91,1.24,5.23,3.47,7.41,5.71A.36.36,0,0,0,338,140.65Z" fill="#297600"></path><path d="M297.57,146a10.05,10.05,0,0,0-5.38,9.64c.28,7.1,12,.17,15.1-5.83s3.59,2.56,3.59,2.56" fill="#297600"></path><path d="M308.1,143.56a21.19,21.19,0,0,0-6.49.9,15.76,15.76,0,0,0-4,1.58,13,13,0,0,0,2.34,1.24,7.11,7.11,0,0,1,3.78,2.71,5.4,5.4,0,0,1,.45,1.07c.71,2.34.1,5.17,1.06,7.52s2.92,4.42,5.69,4.59c3.3.2,4.81-3,5.46-5.71s1.54-6.48.5-9.3C315.64,144.9,311.22,143.71,308.1,143.56Z" fill="#5fad00"></path><path d="M312.45,154.65c-1.38-4.49-4.32-8.72-8.61-10.7h-.16l-.2.06-.78.2c5,1.86,8.14,6.79,9.43,11.83,1.64,6.45,1.09,13.43,1.1,20a.35.35,0,0,0,.69,0C313.9,169,314.55,161.47,312.45,154.65Z" fill="#297600"></path></g></g></svg>