<svg xmlns="http://www.w3.org/2000/svg" xmlns:xlink="http://www.w3.org/1999/xlink" viewBox="0 0 400 300" width="406" height="306" class="illustration styles_illustrationTablet__1DWOa"><defs><linearGradient id="linear-gradient" x1="263.09" y1="268.89" x2="247.69" y2="243.09" gradientUnits="userSpaceOnUse"><stop offset="0" stop-color="#fff" stop-opacity="0"></stop><stop offset="0.99" stop-color="#ffa86a"></stop></linearGradient><linearGradient id="linear-gradient-2" x1="330.96" y1="221.72" x2="324.13" y2="210.01" xlink:href="#linear-gradient"></linearGradient><linearGradient id="linear-gradient-3" x1="184.82" y1="152.63" x2="180.51" y2="145.25" xlink:href="#linear-gradient"></linearGradient><linearGradient id="linear-gradient-4" x1="220.68" y1="109.93" x2="216.37" y2="102.54" xlink:href="#linear-gradient"></linearGradient></defs><title>151-160</title><g style="isolation: isolate;"><g id="Layer_2" data-name="Layer 2"><path d="M33.1,165,168.71,86.11a6.41,6.41,0,0,1,6.41,0L377.9,202.16a6.41,6.41,0,0,1,0,11.12L248.24,288.15a20.93,20.93,0,0,1-20.93,0L33.12,176.07A6.41,6.41,0,0,1,33.1,165Z" fill="#ffb3a6"></path><path d="M241.47,295.06c35.88-23.7,56.62-26,90-50.55-21.15-11-57.08-32.47-70.13-40.63l-88.95,51.95,67.39,39.25Z" opacity="0.63" fill="url(#linear-gradient)" style="mix-blend-mode: multiply;"></path><polygon points="107.17 219.74 185.14 263.85 276.19 210.82 276.19 175.17 185.14 228.19 107.17 183.63 107.17 219.74" fill="#a0d700"></polygon><polygon points="107.17 183.63 199.96 130.39 276.19 175.17 185.14 228.19 107.17 183.63" fill="#cbed4f"></polygon><polygon points="185.14 228.19 185.14 263.85 276.19 210.82 276.19 175.17 185.14 228.19" fill="#93bc00"></polygon><polyline points="163.53 79.08 163.53 139.68 241.65 175.17 276.19 139.2 276.19 103.15" fill="#c55765"></polyline><polygon points="240.85 124.01 240.85 196.56 276.19 175.17 276.19 103.15 240.85 124.01" fill="#c55765"></polygon><polyline points="163.53 79.08 163.53 139.68 240.85 174.81 240.85 174.81 240.85 124.01" opacity="0.15"></polyline><polygon points="240.85 124.01 276.19 103.15 199.12 58.85 163.53 79.08 240.85 124.01" fill="#c55765"></polygon><polygon points="240.85 124.01 240.85 196.56 276.19 175.17 276.19 103.15 240.85 124.01" opacity="0.25"></polygon><polyline points="128.2 136.03 128.2 171.64 206.32 216.09 240.85 196.15 240.85 160.1" fill="#ee4165"></polyline><polygon points="205.52 180.96 240.85 160.1 163.79 115.81 128.2 136.03 205.52 180.96" fill="#fa6d90"></polygon><polygon points="205.52 180.96 205.52 216.09 276.19 175.17 276.19 139.2 205.52 180.96" fill="#d82352"></polygon><path d="M229.53,43.12a7.5,7.5,0,0,1,1.53,1,9.5,9.5,0,0,1,1.22,1.24c.32.41.6.79.83,1.16a6.75,6.75,0,0,1,.51.9l.16.34-1.67,1.7c-.07-.16-.17-.37-.3-.6a8,8,0,0,0-.82-1.13,4.11,4.11,0,0,0-1.28-1.09,1.22,1.22,0,0,0-1.28-.07,1.35,1.35,0,0,0-.48,1.18,3.09,3.09,0,0,0,.65,1.84,12.35,12.35,0,0,0,1.59,1.77q.94.87,1.88,1.86a8.77,8.77,0,0,1,1.61,2.54,8.49,8.49,0,0,1,.66,3.38c0,1.73-.44,2.93-1.31,3.58s-2.08.6-3.6-.18a8.33,8.33,0,0,1-1.75-1.21,10.37,10.37,0,0,1-1.39-1.47c-.36-.48-.69-.95-1-1.39a9.46,9.46,0,0,1-.6-1.07l-.2-.43,1.67-1.55q.13.27.36.72a9.18,9.18,0,0,0,1,1.41A5.35,5.35,0,0,0,229.22,59a1.5,1.5,0,0,0,1.57.12,1.61,1.61,0,0,0,.57-1.43,3.17,3.17,0,0,0-.65-1.85,12.31,12.31,0,0,0-1.6-1.77q-.95-.86-1.88-1.86a8.71,8.71,0,0,1-1.59-2.53A8.49,8.49,0,0,1,225,46.3a3.83,3.83,0,0,1,1.27-3.24C227.09,42.42,228.18,42.44,229.53,43.12Z" fill="#c55765"></path><path d="M239.61,50.38v4.14l1.85.94v3.21l-1.85-.94v5.21a2.53,2.53,0,0,0,.31,1.21,1.85,1.85,0,0,0,.79.83,2.17,2.17,0,0,0,.48.18,1,1,0,0,0,.35,0h.11v3.08a3.45,3.45,0,0,1-1.62-.44l-.06,0c-1.91-1-2.86-3-2.86-6V56.46l-1.57-.8V52.45l.83.42a.56.56,0,0,0,.73-.11,1.63,1.63,0,0,0,.3-1.1v-2.4Z" fill="#c55765"></path><path d="M251.72,66.69l-.09,1.42L245,64.77a5.62,5.62,0,0,0,.79,2.2,4,4,0,0,0,1.62,1.56,2.18,2.18,0,0,0,1.31.27,1.43,1.43,0,0,0,.85-.37l.26-.28,1.29,3.06-.17.16a2.64,2.64,0,0,1-.48.3,2.59,2.59,0,0,1-1.87.3,4.61,4.61,0,0,1-1.37-.47,8.2,8.2,0,0,1-3.41-3.73,11.83,11.83,0,0,1-1.4-5.53,5.35,5.35,0,0,1,1.4-4.1,2.7,2.7,0,0,1,3.34-.31,7.65,7.65,0,0,1,3.24,3.51A11.53,11.53,0,0,1,251.72,66.69Zm-6.66-4.46,4.17,2.12a5.49,5.49,0,0,0-.69-2.07,3.3,3.3,0,0,0-1.34-1.36,1.26,1.26,0,0,0-1.35,0,2.2,2.2,0,0,0-.79,1.34" fill="#c55765"></path><path d="M261.82,67.24a12.29,12.29,0,0,1,1.3,5.49,5.78,5.78,0,0,1-1.31,4.18,2.4,2.4,0,0,1-3.06.42,4.72,4.72,0,0,1-1.45-1.2,6.93,6.93,0,0,1-1-1.4l-.28-.63v7.22l-2.49-1.27,0-18.71,2.49,1.27v1.6l.11-.14.32-.27a2.06,2.06,0,0,1,.54-.3,1.86,1.86,0,0,1,.75-.08,2.58,2.58,0,0,1,1,.29A7.4,7.4,0,0,1,261.82,67.24Zm-2,6.44a3.26,3.26,0,0,0,.65-2.27,6.58,6.58,0,0,0-.64-2.91,3.72,3.72,0,0,0-1.57-1.82,1.22,1.22,0,0,0-1.58.21,3.21,3.21,0,0,0-.65,2.25,6.65,6.65,0,0,0,.64,2.93,3.77,3.77,0,0,0,1.58,1.82,1.21,1.21,0,0,0,1.57-.22" fill="#c55765"></path><path d="M272.73,65.05a7.51,7.51,0,0,1,3.16,3.1,8.6,8.6,0,0,1,1.19,4.31,4.69,4.69,0,0,1-.19,1.44,2.69,2.69,0,0,1-.46.92,2.84,2.84,0,0,1-.53.48,1.17,1.17,0,0,1-.48.19l-.18,0,.25.27a8.87,8.87,0,0,1,.56.76,8.25,8.25,0,0,1,.7,1.21,9.1,9.1,0,0,1,.56,1.62,8,8,0,0,1,.25,2,3.85,3.85,0,0,1-1.33,3.29c-.89.65-2.05.62-3.5-.12a8.76,8.76,0,0,1-1.77-1.21,9.88,9.88,0,0,1-1.4-1.45c-.36-.47-.68-.91-1-1.34a7.52,7.52,0,0,1-.59-1l-.19-.4,1.68-1.68c0,.07.06.15.11.28s.18.34.37.67a9.21,9.21,0,0,0,.61.92,6.6,6.6,0,0,0,.82.89,4.64,4.64,0,0,0,1,.74c.72.36,1.27.41,1.65.16a1.59,1.59,0,0,0,.58-1.43,3.93,3.93,0,0,0-.57-2,3.73,3.73,0,0,0-1.56-1.47l-1.4-.71V72.14l1.3.66a1.13,1.13,0,0,0,1.29,0,1.71,1.71,0,0,0,.47-1.4,3.57,3.57,0,0,0-.46-1.78,3,3,0,0,0-1.29-1.26,2,2,0,0,0-1.32-.23,1.7,1.7,0,0,0-.89.41l-.28.29-1.66-3.24a1.74,1.74,0,0,1,.17-.21,3.2,3.2,0,0,1,1.4-.83,3.74,3.74,0,0,1,1.25,0A4.78,4.78,0,0,1,272.73,65.05Z" fill="#c55765"></path><g opacity="0.25"><path d="M229.53,43.12a7.5,7.5,0,0,1,1.53,1,9.5,9.5,0,0,1,1.22,1.24c.32.41.6.79.83,1.16a6.75,6.75,0,0,1,.51.9l.16.34-1.67,1.7c-.07-.16-.17-.37-.3-.6a8,8,0,0,0-.82-1.13,4.11,4.11,0,0,0-1.28-1.09,1.22,1.22,0,0,0-1.28-.07,1.35,1.35,0,0,0-.48,1.18,3.09,3.09,0,0,0,.65,1.84,12.35,12.35,0,0,0,1.59,1.77q.94.87,1.88,1.86a8.77,8.77,0,0,1,1.61,2.54,8.49,8.49,0,0,1,.66,3.38c0,1.73-.44,2.93-1.31,3.58s-2.08.6-3.6-.18a8.33,8.33,0,0,1-1.75-1.21,10.37,10.37,0,0,1-1.39-1.47c-.36-.48-.69-.95-1-1.39a9.46,9.46,0,0,1-.6-1.07l-.2-.43,1.67-1.55q.13.27.36.72a9.18,9.18,0,0,0,1,1.41A5.35,5.35,0,0,0,229.22,59a1.5,1.5,0,0,0,1.57.12,1.61,1.61,0,0,0,.57-1.43,3.17,3.17,0,0,0-.65-1.85,12.31,12.31,0,0,0-1.6-1.77q-.95-.86-1.88-1.86a8.71,8.71,0,0,1-1.59-2.53A8.49,8.49,0,0,1,225,46.3a3.83,3.83,0,0,1,1.27-3.24C227.09,42.42,228.18,42.44,229.53,43.12Z"></path><path d="M239.61,50.38v4.14l1.85.94v3.21l-1.85-.94v5.21a2.53,2.53,0,0,0,.31,1.21,1.85,1.85,0,0,0,.79.83,2.17,2.17,0,0,0,.48.18,1,1,0,0,0,.35,0h.11v3.08a3.45,3.45,0,0,1-1.62-.44l-.06,0c-1.91-1-2.86-3-2.86-6V56.46l-1.57-.8V52.45l.83.42a.56.56,0,0,0,.73-.11,1.63,1.63,0,0,0,.3-1.1v-2.4Z"></path><path d="M251.72,66.69l-.09,1.42L245,64.77a5.62,5.62,0,0,0,.79,2.2,4,4,0,0,0,1.62,1.56,2.18,2.18,0,0,0,1.31.27,1.43,1.43,0,0,0,.85-.37l.26-.28,1.29,3.06-.17.16a2.64,2.64,0,0,1-.48.3,2.59,2.59,0,0,1-1.87.3,4.61,4.61,0,0,1-1.37-.47,8.2,8.2,0,0,1-3.41-3.73,11.83,11.83,0,0,1-1.4-5.53,5.35,5.35,0,0,1,1.4-4.1,2.7,2.7,0,0,1,3.34-.31,7.65,7.65,0,0,1,3.24,3.51A11.53,11.53,0,0,1,251.72,66.69Zm-6.66-4.46,4.17,2.12a5.49,5.49,0,0,0-.69-2.07,3.3,3.3,0,0,0-1.34-1.36,1.26,1.26,0,0,0-1.35,0,2.2,2.2,0,0,0-.79,1.34"></path><path d="M261.82,67.24a12.29,12.29,0,0,1,1.3,5.49,5.78,5.78,0,0,1-1.31,4.18,2.4,2.4,0,0,1-3.06.42,4.72,4.72,0,0,1-1.45-1.2,6.93,6.93,0,0,1-1-1.4l-.28-.63v7.22l-2.49-1.27,0-18.71,2.49,1.27v1.6l.11-.14.32-.27a2.06,2.06,0,0,1,.54-.3,1.86,1.86,0,0,1,.75-.08,2.58,2.58,0,0,1,1,.29A7.4,7.4,0,0,1,261.82,67.24Zm-2,6.44a3.26,3.26,0,0,0,.65-2.27,6.58,6.58,0,0,0-.64-2.91,3.72,3.72,0,0,0-1.57-1.82,1.22,1.22,0,0,0-1.58.21,3.21,3.21,0,0,0-.65,2.25,6.65,6.65,0,0,0,.64,2.93,3.77,3.77,0,0,0,1.58,1.82,1.21,1.21,0,0,0,1.57-.22"></path><path d="M272.73,65.05a7.51,7.51,0,0,1,3.16,3.1,8.6,8.6,0,0,1,1.19,4.31,4.69,4.69,0,0,1-.19,1.44,2.69,2.69,0,0,1-.46.92,2.84,2.84,0,0,1-.53.48,1.17,1.17,0,0,1-.48.19l-.18,0,.25.27a8.87,8.87,0,0,1,.56.76,8.25,8.25,0,0,1,.7,1.21,9.1,9.1,0,0,1,.56,1.62,8,8,0,0,1,.25,2,3.85,3.85,0,0,1-1.33,3.29c-.89.65-2.05.62-3.5-.12a8.76,8.76,0,0,1-1.77-1.21,9.88,9.88,0,0,1-1.4-1.45c-.36-.47-.68-.91-1-1.34a7.52,7.52,0,0,1-.59-1l-.19-.4,1.68-1.68c0,.07.06.15.11.28s.18.34.37.67a9.21,9.21,0,0,0,.61.92,6.6,6.6,0,0,0,.82.89,4.64,4.64,0,0,0,1,.74c.72.36,1.27.41,1.65.16a1.59,1.59,0,0,0,.58-1.43,3.93,3.93,0,0,0-.57-2,3.73,3.73,0,0,0-1.56-1.47l-1.4-.71V72.14l1.3.66a1.13,1.13,0,0,0,1.29,0,1.71,1.71,0,0,0,.47-1.4,3.57,3.57,0,0,0-.46-1.78,3,3,0,0,0-1.29-1.26,2,2,0,0,0-1.32-.23,1.7,1.7,0,0,0-.89.41l-.28.29-1.66-3.24a1.74,1.74,0,0,1,.17-.21,3.2,3.2,0,0,1,1.4-.83,3.74,3.74,0,0,1,1.25,0A4.78,4.78,0,0,1,272.73,65.05Z"></path></g><path d="M330.64,225.06c9.33-6.16,8.3-3,17-9.37-5.5-2.86-22-13.16-25.37-15.28L302.77,208l17.52,10.2C320.43,218.18,330.49,225.06,330.64,225.06Z" opacity="0.63" fill="url(#linear-gradient-2)" style="mix-blend-mode: multiply;"></path><polyline points="303.29 190.87 303.29 205.75 327.37 205.75 327.37 190.87" fill="#c55765"></polyline><ellipse cx="315.33" cy="190.87" rx="12.04" ry="5.92" fill="#c55765"></ellipse><ellipse cx="315.33" cy="190.87" rx="12.04" ry="5.92" opacity="0.73"></ellipse><ellipse cx="315.33" cy="206.33" rx="12.04" ry="5.92" fill="#c55765"></ellipse><path d="M328.81,156.27c-2.54-1-6.06-4.5-9.13-4.39a36,36,0,0,0-1.86,9.13,82.89,82.89,0,0,0-.35,15.25q.11,1.7.28,3.39a2.7,2.7,0,0,0,.27,1q0,5.89,0,11.78a.37.37,0,0,0,.75,0q0-5.67,0-11.33a16.7,16.7,0,0,0,3.45-1.59,11.73,11.73,0,0,0,4.85-6.09c1.94-5.41.72-11.45,2.56-16.8C329.34,156.48,329.07,156.38,328.81,156.27Z" fill="#297600"></path><path d="M323.6,147.41a9.43,9.43,0,0,0-3.44,3.52,5.9,5.9,0,0,0-.54,1l-.1.23h0a15.74,15.74,0,0,0-.58,1.87,2.33,2.33,0,0,1,1.28-1,3.18,3.18,0,0,1,2-.18,8.42,8.42,0,0,1,1.84,1c.86.52,1.69,1.1,2.53,1.64,4,2.53,9.3,2.79,12.38-.9,0-.15.08-.29.1-.44C339.54,151.63,332.42,142.28,323.6,147.41Z" fill="#5fad00"></path><path d="M337.22,156.17l.5-.33a.34.34,0,0,0-.1-.29c-2.41-2.48-5-4.9-8.3-6.12a14.21,14.21,0,0,0-7.41-.73c-.27.31-.51.64-.75,1a12.87,12.87,0,0,1,8.52.71c2.91,1.24,5.23,3.47,7.41,5.71A.36.36,0,0,0,337.22,156.17Z" fill="#297600"></path><path d="M296.81,161.56a10.05,10.05,0,0,0-5.38,9.64c.28,7.1,12,.17,15.1-5.83s3.59,2.56,3.59,2.56" fill="#297600"></path><path d="M307.34,159.08a21.19,21.19,0,0,0-6.49.9,15.76,15.76,0,0,0-4,1.58,13,13,0,0,0,2.34,1.24,7.11,7.11,0,0,1,3.78,2.71,5.4,5.4,0,0,1,.45,1.07c.71,2.34.1,5.17,1.06,7.52s2.92,4.42,5.69,4.59c3.3.2,4.81-3,5.46-5.71s1.54-6.48.5-9.3C314.87,160.41,310.46,159.23,307.34,159.08Z" fill="#5fad00"></path><path d="M311.68,170.16c-1.38-4.49-4.32-8.72-8.61-10.7h-.16l-.2.06-.78.2c5,1.86,8.14,6.79,9.43,11.83,1.64,6.45,1.09,13.43,1.1,20a.35.35,0,0,0,.69,0C313.13,184.54,313.79,177,311.68,170.16Z" fill="#297600"></path><path d="M184.62,154.74c5.88-3.88,5.23-1.89,10.7-5.91-3.46-1.81-13.85-8.3-16-9.63L167,144l11,6.43C178.18,150.4,184.52,154.74,184.62,154.74Z" opacity="0.63" fill="url(#linear-gradient-3)" style="mix-blend-mode: multiply;"></path><path d="M220.48,112c5.88-3.88,5.23-1.89,10.7-5.91-3.46-1.81-13.85-8.3-16-9.63l-12.28,4.77,11,6.43C214,107.7,220.39,112,220.48,112Z" opacity="0.63" fill="url(#linear-gradient-4)" style="mix-blend-mode: multiply;"></path><polyline points="182.23 48.59 177.4 74.39 191.57 58.16" fill="#ffede1"></polyline><path d="M217,95.87c-1.17-.36-6.2-.08-6.2-.08s-.37-6.78-.25-7h-5S204,98.74,203.9,99.73c-.19,1.82,2,2.62,2.5,2.6a8.9,8.9,0,0,0,1.08-.32,15,15,0,0,1,0-2.87c.07-.43.19-.73.63-.85.79-.21,2.16.35,2.92.58s1.79.58,2.69.84c2.14-.86,4-1.71,4.15-2.11C218.33,96.61,218.78,96.42,217,95.87Z" fill="#ffb3a6"></path><path d="M218.67,96.36l-.11-.15c-.35-.42-1.39-.5-1.88-.56a24.45,24.45,0,0,0-5.91.14s4.74-.15,4.83.71a2.23,2.23,0,0,1-.68,1.88c-2.14,1.53-5-.7-6.79-1.72l-3.37-1.89-.53,2.85a21.42,21.42,0,0,0-.41,3.95c.2.43,2.18,1.75,2.64,1.57s1.93-.86,1.93-.86l.09-3.5s2.79,1.57,4.2,1.35C213.75,100,219.71,98.12,218.67,96.36Z" fill="#56403d"></path><path d="M201.76,81.61l-.4,7.72a18.84,18.84,0,0,0,12,1.31c.84-4.44,2.41-13.29,2.24-16.26-.23-4,.62-8.23-4.77-10.87-4.13-2-16.75,2.86-16.75,2.86l-9.49,16.19C196.77,87.39,201.76,81.61,201.76,81.61Z" fill="#999a1c"></path><path d="M177.37,138.79c-.77-.36-1.92-.7-2.41-1.47a4.71,4.71,0,0,1-.24-2.79q.1-1.33.27-2.65a.44.44,0,0,1-.13-.34,16,16,0,0,1,.24-2.15l-3.59-.73s-2.26,6-2.23,6.74,3,5.78,4.7,6.28,6.75-.52,7.22-1.14l0-.06C179.94,139.94,178.64,139.38,177.37,138.79Z" fill="#ffb3a6"></path><path d="M172.63,135.83s1.27,6.12,1.92,6.58,8.17-1.1,7.23-2.6c-.6-1-5-1.41-5.37-1.56,0,0,2.23,1,2.19,1.37s-3.09,1.41-3.21,1.12-2.75-5.81-2.75-5.81l-2.87-1.36-3,5.19,2,1.11s.46,1.72.68,1.74a24.2,24.2,0,0,0,2.23-2.86,8.09,8.09,0,0,0,.49,2.24c.27.24,2.48,2.49,3.75,1.08l-1.8-2.5" fill="#56403d"></path><path d="M193.39,78.74c2.32-7.59,2.38-6.24,3.9-12.5l-15.18-4c-7.74,11.6-14.93,67.62-14.93,67.62s7.49,6,14,4.18c0,0,8.77-46.21,8.79-46.26C191.21,84.65,191.26,84.05,193.39,78.74Z" fill="#999a1c"></path><path d="M191,85.07s-4.09-.65-6.36-2.51l-.83,34.72Z" fill="#7a770e"></path><path d="M189.88,42.48s-8.4-18.92-9.36-20.14,1.15-7.36-.17-7.29-2.9,3.13-2.9,3.13-5.78-4.18-7.84-2.88,6.46,9.93,6.46,9.93l7.08,23.44" fill="#ffb3a6"></path><path d="M204.59,38.62s19.13-7.93,20.66-8.15,4.23-6.13,5.15-5.16-.06,4.27-.06,4.27,7.06,1,7.67,3.31-11.53,2.75-11.53,2.75L205.19,47.76" fill="#ffb3a6"></path><polyline points="190.16 36.6 183.8 30.97 179.58 44.78 184.87 52.54" fill="#b05800"></polyline><path d="M200.09,40h-.59c-3.05,0-6.42-4.14-6.42-4.14S192,26.3,186.57,34c-4,5.72-5.1,21.9-5.38,29.73,2.17,1.6,5,2.14,7.64,2.44a32.44,32.44,0,0,0,5.29.26,7.85,7.85,0,0,0,3.13-.8l2.27-12.65A128.21,128.21,0,0,1,200.09,40Z" fill="#b05800"></path><path d="M196.9,25.46s5.2,7.29,1.47,10-7.43-.44-7.9-1.33S189,26,196.9,25.46Z" fill="#ffb3a6"></path><path d="M197,24.23a8.58,8.58,0,0,0-7.18,0,10.41,10.41,0,0,0-5,3.62,3.52,3.52,0,0,0-1.85-.35,3.66,3.66,0,0,0-3.31,2.76,3.17,3.17,0,0,0,1.75,3.52,4,4,0,0,0,3-.15l0,.18c.34,1.46-1,2.41-1.32,3.74a3,3,0,0,0,0,1.87c.23.6,1,1.18,1,1.8a3,3,0,0,1-.47,1.41,6.62,6.62,0,0,0-.52,1.48c3.17,1.17,6.85.65,10-.46a16.69,16.69,0,0,0,8.49-6.24,2.47,2.47,0,0,0-.74-.76,9.23,9.23,0,0,0-1.88-.68c-.94-.38-.25-2-.4-2.85-.25-1.41-1.36-1.85-2.6-2.17-.89-.23-1-.74-1.13-1.61a3.28,3.28,0,0,1,.13-2,1.11,1.11,0,0,0,.71-.26,6.09,6.09,0,0,1,1.31-.81,1,1,0,0,0,.43-1.33A.83.83,0,0,0,197,24.23Z" fill="#56403d"></path><path d="M194.37,27.81A16,16,0,0,0,198,25.92c0-.13-.31-5.08-8.76-2.16s-2.87,12.73-2.87,12.73" fill="#56403d"></path><path d="M196.24,36.48s13-1.77,15.87-1.39l.82,9.8-16.69,9.85" fill="#b05800"></path></g></g></svg>